<mxfile host="app.diagrams.net" modified="2022-05-30T14:44:57.260Z" agent="5.0 (Windows NT 10.0; Win64; x64) AppleWebKit/537.36 (KHTML, like Gecko) Chrome/101.0.4951.67 Safari/537.36" etag="Pjmp76F7ckYUCZaF2YSH" version="18.0.7" type="github">
  <diagram id="_xZDCPKDJ4cOwNuJxsT0" name="Page-1">
    <mxGraphModel dx="782" dy="482" grid="0" gridSize="10" guides="1" tooltips="1" connect="1" arrows="1" fold="1" page="1" pageScale="1" pageWidth="827" pageHeight="1169" math="0" shadow="0">
      <root>
        <mxCell id="0" />
        <mxCell id="1" parent="0" />
        <mxCell id="hkOxzjE-X1axXh_WFCk2-1" value="" style="whiteSpace=wrap;html=1;aspect=fixed;" vertex="1" parent="1">
          <mxGeometry x="46" y="276" width="140" height="140" as="geometry" />
        </mxCell>
        <mxCell id="hkOxzjE-X1axXh_WFCk2-2" value="" style="ellipse;whiteSpace=wrap;html=1;aspect=fixed;fillColor=#88A4CE;strokeColor=#000000;" vertex="1" parent="1">
          <mxGeometry x="60" y="295" width="20" height="20" as="geometry" />
        </mxCell>
        <mxCell id="hkOxzjE-X1axXh_WFCk2-3" value="" style="ellipse;whiteSpace=wrap;html=1;aspect=fixed;fillColor=#88A4CE;strokeColor=#000000;" vertex="1" parent="1">
          <mxGeometry x="106" y="295" width="20" height="20" as="geometry" />
        </mxCell>
        <mxCell id="hkOxzjE-X1axXh_WFCk2-4" value="" style="ellipse;whiteSpace=wrap;html=1;aspect=fixed;fillColor=#88A4CE;" vertex="1" parent="1">
          <mxGeometry x="152" y="295" width="20" height="20" as="geometry" />
        </mxCell>
        <mxCell id="hkOxzjE-X1axXh_WFCk2-5" value="" style="ellipse;whiteSpace=wrap;html=1;aspect=fixed;fillColor=#88A4CE;" vertex="1" parent="1">
          <mxGeometry x="60" y="336" width="20" height="20" as="geometry" />
        </mxCell>
        <mxCell id="hkOxzjE-X1axXh_WFCk2-6" value="" style="ellipse;whiteSpace=wrap;html=1;aspect=fixed;fillColor=#88A4CE;" vertex="1" parent="1">
          <mxGeometry x="106" y="336" width="20" height="20" as="geometry" />
        </mxCell>
        <mxCell id="hkOxzjE-X1axXh_WFCk2-7" value="" style="ellipse;whiteSpace=wrap;html=1;aspect=fixed;fillColor=#88A4CE;" vertex="1" parent="1">
          <mxGeometry x="152" y="336" width="20" height="20" as="geometry" />
        </mxCell>
        <mxCell id="hkOxzjE-X1axXh_WFCk2-8" value="" style="ellipse;whiteSpace=wrap;html=1;aspect=fixed;fillColor=#88A4CE;" vertex="1" parent="1">
          <mxGeometry x="60" y="377" width="20" height="20" as="geometry" />
        </mxCell>
        <mxCell id="hkOxzjE-X1axXh_WFCk2-9" value="" style="ellipse;whiteSpace=wrap;html=1;aspect=fixed;fillColor=#88A4CE;" vertex="1" parent="1">
          <mxGeometry x="152" y="377" width="20" height="20" as="geometry" />
        </mxCell>
        <mxCell id="hkOxzjE-X1axXh_WFCk2-10" value="" style="ellipse;whiteSpace=wrap;html=1;aspect=fixed;fillColor=#88A4CE;" vertex="1" parent="1">
          <mxGeometry x="106" y="377" width="20" height="20" as="geometry" />
        </mxCell>
        <mxCell id="hkOxzjE-X1axXh_WFCk2-11" value="" style="whiteSpace=wrap;html=1;aspect=fixed;" vertex="1" parent="1">
          <mxGeometry x="218" y="276" width="140" height="140" as="geometry" />
        </mxCell>
        <mxCell id="hkOxzjE-X1axXh_WFCk2-12" value="" style="ellipse;whiteSpace=wrap;html=1;aspect=fixed;fillColor=#88A4CE;strokeColor=#000000;" vertex="1" parent="1">
          <mxGeometry x="232" y="295" width="20" height="20" as="geometry" />
        </mxCell>
        <mxCell id="hkOxzjE-X1axXh_WFCk2-13" value="" style="ellipse;whiteSpace=wrap;html=1;aspect=fixed;fillColor=#88A4CE;strokeColor=#000000;" vertex="1" parent="1">
          <mxGeometry x="278" y="295" width="20" height="20" as="geometry" />
        </mxCell>
        <mxCell id="hkOxzjE-X1axXh_WFCk2-14" value="" style="ellipse;whiteSpace=wrap;html=1;aspect=fixed;fillColor=#88A4CE;" vertex="1" parent="1">
          <mxGeometry x="324" y="295" width="20" height="20" as="geometry" />
        </mxCell>
        <mxCell id="hkOxzjE-X1axXh_WFCk2-15" value="" style="ellipse;whiteSpace=wrap;html=1;aspect=fixed;fillColor=#88A4CE;" vertex="1" parent="1">
          <mxGeometry x="232" y="336" width="20" height="20" as="geometry" />
        </mxCell>
        <mxCell id="hkOxzjE-X1axXh_WFCk2-16" value="" style="ellipse;whiteSpace=wrap;html=1;aspect=fixed;fillColor=#88A4CE;" vertex="1" parent="1">
          <mxGeometry x="278" y="336" width="20" height="20" as="geometry" />
        </mxCell>
        <mxCell id="hkOxzjE-X1axXh_WFCk2-17" value="" style="ellipse;whiteSpace=wrap;html=1;aspect=fixed;fillColor=#88A4CE;" vertex="1" parent="1">
          <mxGeometry x="324" y="336" width="20" height="20" as="geometry" />
        </mxCell>
        <mxCell id="hkOxzjE-X1axXh_WFCk2-18" value="" style="ellipse;whiteSpace=wrap;html=1;aspect=fixed;fillColor=#88A4CE;" vertex="1" parent="1">
          <mxGeometry x="232" y="377" width="20" height="20" as="geometry" />
        </mxCell>
        <mxCell id="hkOxzjE-X1axXh_WFCk2-19" value="" style="ellipse;whiteSpace=wrap;html=1;aspect=fixed;fillColor=#88A4CE;" vertex="1" parent="1">
          <mxGeometry x="324" y="377" width="20" height="20" as="geometry" />
        </mxCell>
        <mxCell id="hkOxzjE-X1axXh_WFCk2-20" value="" style="ellipse;whiteSpace=wrap;html=1;aspect=fixed;fillColor=#88A4CE;" vertex="1" parent="1">
          <mxGeometry x="278" y="377" width="20" height="20" as="geometry" />
        </mxCell>
        <mxCell id="hkOxzjE-X1axXh_WFCk2-21" value="" style="whiteSpace=wrap;html=1;aspect=fixed;" vertex="1" parent="1">
          <mxGeometry x="389" y="276" width="140" height="140" as="geometry" />
        </mxCell>
        <mxCell id="hkOxzjE-X1axXh_WFCk2-22" value="" style="ellipse;whiteSpace=wrap;html=1;aspect=fixed;fillColor=#88A4CE;strokeColor=#000000;" vertex="1" parent="1">
          <mxGeometry x="403" y="295" width="20" height="20" as="geometry" />
        </mxCell>
        <mxCell id="hkOxzjE-X1axXh_WFCk2-23" value="" style="ellipse;whiteSpace=wrap;html=1;aspect=fixed;fillColor=#88A4CE;strokeColor=#000000;" vertex="1" parent="1">
          <mxGeometry x="449" y="295" width="20" height="20" as="geometry" />
        </mxCell>
        <mxCell id="hkOxzjE-X1axXh_WFCk2-24" value="" style="ellipse;whiteSpace=wrap;html=1;aspect=fixed;fillColor=#88A4CE;" vertex="1" parent="1">
          <mxGeometry x="495" y="295" width="20" height="20" as="geometry" />
        </mxCell>
        <mxCell id="hkOxzjE-X1axXh_WFCk2-25" value="" style="ellipse;whiteSpace=wrap;html=1;aspect=fixed;fillColor=#88A4CE;" vertex="1" parent="1">
          <mxGeometry x="403" y="336" width="20" height="20" as="geometry" />
        </mxCell>
        <mxCell id="hkOxzjE-X1axXh_WFCk2-26" value="" style="ellipse;whiteSpace=wrap;html=1;aspect=fixed;fillColor=#88A4CE;" vertex="1" parent="1">
          <mxGeometry x="449" y="336" width="20" height="20" as="geometry" />
        </mxCell>
        <mxCell id="hkOxzjE-X1axXh_WFCk2-27" value="" style="ellipse;whiteSpace=wrap;html=1;aspect=fixed;fillColor=#88A4CE;" vertex="1" parent="1">
          <mxGeometry x="495" y="336" width="20" height="20" as="geometry" />
        </mxCell>
        <mxCell id="hkOxzjE-X1axXh_WFCk2-28" value="" style="ellipse;whiteSpace=wrap;html=1;aspect=fixed;fillColor=#88A4CE;" vertex="1" parent="1">
          <mxGeometry x="403" y="377" width="20" height="20" as="geometry" />
        </mxCell>
        <mxCell id="hkOxzjE-X1axXh_WFCk2-29" value="" style="ellipse;whiteSpace=wrap;html=1;aspect=fixed;fillColor=#88A4CE;" vertex="1" parent="1">
          <mxGeometry x="495" y="377" width="20" height="20" as="geometry" />
        </mxCell>
        <mxCell id="hkOxzjE-X1axXh_WFCk2-30" value="" style="ellipse;whiteSpace=wrap;html=1;aspect=fixed;fillColor=#88A4CE;" vertex="1" parent="1">
          <mxGeometry x="449" y="377" width="20" height="20" as="geometry" />
        </mxCell>
        <mxCell id="hkOxzjE-X1axXh_WFCk2-31" value="" style="whiteSpace=wrap;html=1;aspect=fixed;" vertex="1" parent="1">
          <mxGeometry x="562" y="276" width="140" height="140" as="geometry" />
        </mxCell>
        <mxCell id="hkOxzjE-X1axXh_WFCk2-32" value="" style="ellipse;whiteSpace=wrap;html=1;aspect=fixed;fillColor=#88A4CE;strokeColor=#000000;" vertex="1" parent="1">
          <mxGeometry x="576" y="295" width="20" height="20" as="geometry" />
        </mxCell>
        <mxCell id="hkOxzjE-X1axXh_WFCk2-33" value="" style="ellipse;whiteSpace=wrap;html=1;aspect=fixed;fillColor=#88A4CE;strokeColor=#000000;" vertex="1" parent="1">
          <mxGeometry x="622" y="295" width="20" height="20" as="geometry" />
        </mxCell>
        <mxCell id="hkOxzjE-X1axXh_WFCk2-34" value="" style="ellipse;whiteSpace=wrap;html=1;aspect=fixed;fillColor=#88A4CE;" vertex="1" parent="1">
          <mxGeometry x="668" y="295" width="20" height="20" as="geometry" />
        </mxCell>
        <mxCell id="hkOxzjE-X1axXh_WFCk2-35" value="" style="ellipse;whiteSpace=wrap;html=1;aspect=fixed;fillColor=#88A4CE;" vertex="1" parent="1">
          <mxGeometry x="576" y="336" width="20" height="20" as="geometry" />
        </mxCell>
        <mxCell id="hkOxzjE-X1axXh_WFCk2-36" value="" style="ellipse;whiteSpace=wrap;html=1;aspect=fixed;fillColor=#88A4CE;" vertex="1" parent="1">
          <mxGeometry x="622" y="336" width="20" height="20" as="geometry" />
        </mxCell>
        <mxCell id="hkOxzjE-X1axXh_WFCk2-37" value="" style="ellipse;whiteSpace=wrap;html=1;aspect=fixed;fillColor=#88A4CE;" vertex="1" parent="1">
          <mxGeometry x="668" y="336" width="20" height="20" as="geometry" />
        </mxCell>
        <mxCell id="hkOxzjE-X1axXh_WFCk2-38" value="" style="ellipse;whiteSpace=wrap;html=1;aspect=fixed;fillColor=#88A4CE;" vertex="1" parent="1">
          <mxGeometry x="576" y="377" width="20" height="20" as="geometry" />
        </mxCell>
        <mxCell id="hkOxzjE-X1axXh_WFCk2-39" value="" style="ellipse;whiteSpace=wrap;html=1;aspect=fixed;fillColor=#88A4CE;" vertex="1" parent="1">
          <mxGeometry x="668" y="377" width="20" height="20" as="geometry" />
        </mxCell>
        <mxCell id="hkOxzjE-X1axXh_WFCk2-40" value="" style="ellipse;whiteSpace=wrap;html=1;aspect=fixed;fillColor=#88A4CE;" vertex="1" parent="1">
          <mxGeometry x="622" y="377" width="20" height="20" as="geometry" />
        </mxCell>
        <mxCell id="hkOxzjE-X1axXh_WFCk2-41" value="" style="whiteSpace=wrap;html=1;aspect=fixed;" vertex="1" parent="1">
          <mxGeometry x="46" y="454" width="140" height="140" as="geometry" />
        </mxCell>
        <mxCell id="hkOxzjE-X1axXh_WFCk2-42" value="" style="ellipse;whiteSpace=wrap;html=1;aspect=fixed;fillColor=#88A4CE;strokeColor=#000000;" vertex="1" parent="1">
          <mxGeometry x="60" y="473" width="20" height="20" as="geometry" />
        </mxCell>
        <mxCell id="hkOxzjE-X1axXh_WFCk2-43" value="" style="ellipse;whiteSpace=wrap;html=1;aspect=fixed;fillColor=#88A4CE;strokeColor=#000000;" vertex="1" parent="1">
          <mxGeometry x="106" y="473" width="20" height="20" as="geometry" />
        </mxCell>
        <mxCell id="hkOxzjE-X1axXh_WFCk2-44" value="" style="ellipse;whiteSpace=wrap;html=1;aspect=fixed;fillColor=#88A4CE;" vertex="1" parent="1">
          <mxGeometry x="152" y="473" width="20" height="20" as="geometry" />
        </mxCell>
        <mxCell id="hkOxzjE-X1axXh_WFCk2-45" value="" style="ellipse;whiteSpace=wrap;html=1;aspect=fixed;fillColor=#88A4CE;" vertex="1" parent="1">
          <mxGeometry x="60" y="514" width="20" height="20" as="geometry" />
        </mxCell>
        <mxCell id="hkOxzjE-X1axXh_WFCk2-46" value="" style="ellipse;whiteSpace=wrap;html=1;aspect=fixed;fillColor=#88A4CE;" vertex="1" parent="1">
          <mxGeometry x="106" y="514" width="20" height="20" as="geometry" />
        </mxCell>
        <mxCell id="hkOxzjE-X1axXh_WFCk2-47" value="" style="ellipse;whiteSpace=wrap;html=1;aspect=fixed;fillColor=#88A4CE;" vertex="1" parent="1">
          <mxGeometry x="152" y="514" width="20" height="20" as="geometry" />
        </mxCell>
        <mxCell id="hkOxzjE-X1axXh_WFCk2-48" value="" style="ellipse;whiteSpace=wrap;html=1;aspect=fixed;fillColor=#88A4CE;" vertex="1" parent="1">
          <mxGeometry x="60" y="555" width="20" height="20" as="geometry" />
        </mxCell>
        <mxCell id="hkOxzjE-X1axXh_WFCk2-49" value="" style="ellipse;whiteSpace=wrap;html=1;aspect=fixed;fillColor=#88A4CE;" vertex="1" parent="1">
          <mxGeometry x="152" y="555" width="20" height="20" as="geometry" />
        </mxCell>
        <mxCell id="hkOxzjE-X1axXh_WFCk2-50" value="" style="ellipse;whiteSpace=wrap;html=1;aspect=fixed;fillColor=#88A4CE;" vertex="1" parent="1">
          <mxGeometry x="106" y="555" width="20" height="20" as="geometry" />
        </mxCell>
        <mxCell id="hkOxzjE-X1axXh_WFCk2-51" value="" style="whiteSpace=wrap;html=1;aspect=fixed;" vertex="1" parent="1">
          <mxGeometry x="218" y="454" width="140" height="140" as="geometry" />
        </mxCell>
        <mxCell id="hkOxzjE-X1axXh_WFCk2-52" value="" style="ellipse;whiteSpace=wrap;html=1;aspect=fixed;fillColor=#88A4CE;strokeColor=#000000;" vertex="1" parent="1">
          <mxGeometry x="232" y="473" width="20" height="20" as="geometry" />
        </mxCell>
        <mxCell id="hkOxzjE-X1axXh_WFCk2-53" value="" style="ellipse;whiteSpace=wrap;html=1;aspect=fixed;fillColor=#88A4CE;strokeColor=#000000;" vertex="1" parent="1">
          <mxGeometry x="278" y="473" width="20" height="20" as="geometry" />
        </mxCell>
        <mxCell id="hkOxzjE-X1axXh_WFCk2-54" value="" style="ellipse;whiteSpace=wrap;html=1;aspect=fixed;fillColor=#88A4CE;" vertex="1" parent="1">
          <mxGeometry x="324" y="473" width="20" height="20" as="geometry" />
        </mxCell>
        <mxCell id="hkOxzjE-X1axXh_WFCk2-55" value="" style="ellipse;whiteSpace=wrap;html=1;aspect=fixed;fillColor=#88A4CE;" vertex="1" parent="1">
          <mxGeometry x="232" y="514" width="20" height="20" as="geometry" />
        </mxCell>
        <mxCell id="hkOxzjE-X1axXh_WFCk2-56" value="" style="ellipse;whiteSpace=wrap;html=1;aspect=fixed;fillColor=#88A4CE;" vertex="1" parent="1">
          <mxGeometry x="278" y="514" width="20" height="20" as="geometry" />
        </mxCell>
        <mxCell id="hkOxzjE-X1axXh_WFCk2-57" value="" style="ellipse;whiteSpace=wrap;html=1;aspect=fixed;fillColor=#88A4CE;" vertex="1" parent="1">
          <mxGeometry x="324" y="514" width="20" height="20" as="geometry" />
        </mxCell>
        <mxCell id="hkOxzjE-X1axXh_WFCk2-58" value="" style="ellipse;whiteSpace=wrap;html=1;aspect=fixed;fillColor=#88A4CE;" vertex="1" parent="1">
          <mxGeometry x="232" y="555" width="20" height="20" as="geometry" />
        </mxCell>
        <mxCell id="hkOxzjE-X1axXh_WFCk2-59" value="" style="ellipse;whiteSpace=wrap;html=1;aspect=fixed;fillColor=#88A4CE;" vertex="1" parent="1">
          <mxGeometry x="324" y="555" width="20" height="20" as="geometry" />
        </mxCell>
        <mxCell id="hkOxzjE-X1axXh_WFCk2-60" value="" style="ellipse;whiteSpace=wrap;html=1;aspect=fixed;fillColor=#88A4CE;" vertex="1" parent="1">
          <mxGeometry x="278" y="555" width="20" height="20" as="geometry" />
        </mxCell>
        <mxCell id="hkOxzjE-X1axXh_WFCk2-61" value="" style="whiteSpace=wrap;html=1;aspect=fixed;" vertex="1" parent="1">
          <mxGeometry x="389" y="454" width="140" height="140" as="geometry" />
        </mxCell>
        <mxCell id="hkOxzjE-X1axXh_WFCk2-62" value="" style="ellipse;whiteSpace=wrap;html=1;aspect=fixed;fillColor=#88A4CE;strokeColor=#000000;" vertex="1" parent="1">
          <mxGeometry x="403" y="473" width="20" height="20" as="geometry" />
        </mxCell>
        <mxCell id="hkOxzjE-X1axXh_WFCk2-63" value="" style="ellipse;whiteSpace=wrap;html=1;aspect=fixed;fillColor=#88A4CE;strokeColor=#000000;" vertex="1" parent="1">
          <mxGeometry x="449" y="473" width="20" height="20" as="geometry" />
        </mxCell>
        <mxCell id="hkOxzjE-X1axXh_WFCk2-64" value="" style="ellipse;whiteSpace=wrap;html=1;aspect=fixed;fillColor=#88A4CE;" vertex="1" parent="1">
          <mxGeometry x="495" y="473" width="20" height="20" as="geometry" />
        </mxCell>
        <mxCell id="hkOxzjE-X1axXh_WFCk2-65" value="" style="ellipse;whiteSpace=wrap;html=1;aspect=fixed;fillColor=#88A4CE;" vertex="1" parent="1">
          <mxGeometry x="403" y="514" width="20" height="20" as="geometry" />
        </mxCell>
        <mxCell id="hkOxzjE-X1axXh_WFCk2-66" value="" style="ellipse;whiteSpace=wrap;html=1;aspect=fixed;fillColor=#88A4CE;" vertex="1" parent="1">
          <mxGeometry x="449" y="514" width="20" height="20" as="geometry" />
        </mxCell>
        <mxCell id="hkOxzjE-X1axXh_WFCk2-67" value="" style="ellipse;whiteSpace=wrap;html=1;aspect=fixed;fillColor=#88A4CE;" vertex="1" parent="1">
          <mxGeometry x="495" y="514" width="20" height="20" as="geometry" />
        </mxCell>
        <mxCell id="hkOxzjE-X1axXh_WFCk2-68" value="" style="ellipse;whiteSpace=wrap;html=1;aspect=fixed;fillColor=#88A4CE;" vertex="1" parent="1">
          <mxGeometry x="403" y="555" width="20" height="20" as="geometry" />
        </mxCell>
        <mxCell id="hkOxzjE-X1axXh_WFCk2-69" value="" style="ellipse;whiteSpace=wrap;html=1;aspect=fixed;fillColor=#88A4CE;" vertex="1" parent="1">
          <mxGeometry x="495" y="555" width="20" height="20" as="geometry" />
        </mxCell>
        <mxCell id="hkOxzjE-X1axXh_WFCk2-70" value="" style="ellipse;whiteSpace=wrap;html=1;aspect=fixed;fillColor=#88A4CE;" vertex="1" parent="1">
          <mxGeometry x="449" y="555" width="20" height="20" as="geometry" />
        </mxCell>
        <mxCell id="hkOxzjE-X1axXh_WFCk2-71" value="" style="whiteSpace=wrap;html=1;aspect=fixed;" vertex="1" parent="1">
          <mxGeometry x="562" y="454" width="140" height="140" as="geometry" />
        </mxCell>
        <mxCell id="hkOxzjE-X1axXh_WFCk2-72" value="" style="ellipse;whiteSpace=wrap;html=1;aspect=fixed;fillColor=#88A4CE;strokeColor=#000000;" vertex="1" parent="1">
          <mxGeometry x="576" y="473" width="20" height="20" as="geometry" />
        </mxCell>
        <mxCell id="hkOxzjE-X1axXh_WFCk2-73" value="" style="ellipse;whiteSpace=wrap;html=1;aspect=fixed;fillColor=#88A4CE;strokeColor=#000000;" vertex="1" parent="1">
          <mxGeometry x="622" y="473" width="20" height="20" as="geometry" />
        </mxCell>
        <mxCell id="hkOxzjE-X1axXh_WFCk2-74" value="" style="ellipse;whiteSpace=wrap;html=1;aspect=fixed;fillColor=#88A4CE;" vertex="1" parent="1">
          <mxGeometry x="668" y="473" width="20" height="20" as="geometry" />
        </mxCell>
        <mxCell id="hkOxzjE-X1axXh_WFCk2-75" value="" style="ellipse;whiteSpace=wrap;html=1;aspect=fixed;fillColor=#88A4CE;" vertex="1" parent="1">
          <mxGeometry x="576" y="514" width="20" height="20" as="geometry" />
        </mxCell>
        <mxCell id="hkOxzjE-X1axXh_WFCk2-76" value="" style="ellipse;whiteSpace=wrap;html=1;aspect=fixed;fillColor=#88A4CE;" vertex="1" parent="1">
          <mxGeometry x="622" y="514" width="20" height="20" as="geometry" />
        </mxCell>
        <mxCell id="hkOxzjE-X1axXh_WFCk2-77" value="" style="ellipse;whiteSpace=wrap;html=1;aspect=fixed;fillColor=#88A4CE;" vertex="1" parent="1">
          <mxGeometry x="668" y="514" width="20" height="20" as="geometry" />
        </mxCell>
        <mxCell id="hkOxzjE-X1axXh_WFCk2-78" value="" style="ellipse;whiteSpace=wrap;html=1;aspect=fixed;fillColor=#88A4CE;" vertex="1" parent="1">
          <mxGeometry x="576" y="555" width="20" height="20" as="geometry" />
        </mxCell>
        <mxCell id="hkOxzjE-X1axXh_WFCk2-79" value="" style="ellipse;whiteSpace=wrap;html=1;aspect=fixed;fillColor=#88A4CE;" vertex="1" parent="1">
          <mxGeometry x="668" y="555" width="20" height="20" as="geometry" />
        </mxCell>
        <mxCell id="hkOxzjE-X1axXh_WFCk2-80" value="" style="ellipse;whiteSpace=wrap;html=1;aspect=fixed;fillColor=#88A4CE;" vertex="1" parent="1">
          <mxGeometry x="622" y="555" width="20" height="20" as="geometry" />
        </mxCell>
        <mxCell id="hkOxzjE-X1axXh_WFCk2-81" value="(a) zbs" style="text;html=1;strokeColor=none;fillColor=none;align=center;verticalAlign=middle;whiteSpace=wrap;rounded=0;" vertex="1" parent="1">
          <mxGeometry x="86" y="414" width="60" height="30" as="geometry" />
        </mxCell>
        <mxCell id="hkOxzjE-X1axXh_WFCk2-82" value="(b) zyt" style="text;html=1;strokeColor=none;fillColor=none;align=center;verticalAlign=middle;whiteSpace=wrap;rounded=0;" vertex="1" parent="1">
          <mxGeometry x="258" y="414" width="60" height="30" as="geometry" />
        </mxCell>
        <mxCell id="hkOxzjE-X1axXh_WFCk2-83" value="(c) ysy" style="text;html=1;strokeColor=none;fillColor=none;align=center;verticalAlign=middle;whiteSpace=wrap;rounded=0;" vertex="1" parent="1">
          <mxGeometry x="429" y="414" width="60" height="30" as="geometry" />
        </mxCell>
        <mxCell id="hkOxzjE-X1axXh_WFCk2-84" value="(d) lh" style="text;html=1;strokeColor=none;fillColor=none;align=center;verticalAlign=middle;whiteSpace=wrap;rounded=0;" vertex="1" parent="1">
          <mxGeometry x="602" y="414" width="60" height="30" as="geometry" />
        </mxCell>
        <mxCell id="hkOxzjE-X1axXh_WFCk2-89" value="(e) ykh" style="text;html=1;strokeColor=none;fillColor=none;align=center;verticalAlign=middle;whiteSpace=wrap;rounded=0;" vertex="1" parent="1">
          <mxGeometry x="86" y="599" width="60" height="30" as="geometry" />
        </mxCell>
        <mxCell id="hkOxzjE-X1axXh_WFCk2-91" value="(f) cqh" style="text;html=1;strokeColor=none;fillColor=none;align=center;verticalAlign=middle;whiteSpace=wrap;rounded=0;" vertex="1" parent="1">
          <mxGeometry x="258" y="599" width="60" height="30" as="geometry" />
        </mxCell>
        <mxCell id="hkOxzjE-X1axXh_WFCk2-92" value="(g) cza" style="text;html=1;strokeColor=none;fillColor=none;align=center;verticalAlign=middle;whiteSpace=wrap;rounded=0;" vertex="1" parent="1">
          <mxGeometry x="429" y="599" width="60" height="30" as="geometry" />
        </mxCell>
        <mxCell id="hkOxzjE-X1axXh_WFCk2-93" value="(h) xqf" style="text;html=1;strokeColor=none;fillColor=none;align=center;verticalAlign=middle;whiteSpace=wrap;rounded=0;" vertex="1" parent="1">
          <mxGeometry x="602" y="599" width="60" height="30" as="geometry" />
        </mxCell>
      </root>
    </mxGraphModel>
  </diagram>
</mxfile>
